<svg xmlns="http://www.w3.org/2000/svg" viewBox="0 0 128 128">
  <rect width="128" height="128" rx="19.2" fill="#0F172A"/>
  <path fill="#fff" d="M81.506 25.024a6.234 6.234 0 0 0-2.816-.663 6.26 6.26 0 0 0-6.161 5.138 58.4 58.4 0 0 0-2.33-.614 19.154 19.154 0 0 0-5.138-.689c-9.216 0-16.701 6.588-16.701 14.713 0 1.536.23 3.018.663 4.416a58.861 58.861 0 0 0-8.525 2.253c-1.382.46-2.027 1.997-1.382 3.225l12.364 24.501c.46.921 1.536 1.382 2.533 1.15l12.594-2.944a19.083 19.083 0 0 0 4.181 2.944c.921.46 1.997.23 2.533-.691a6.234 6.234 0 0 0 .921-3.225c0-1.15-.23-2.253-.69-3.225 4.416-1.382 7.636-5.507 7.636-10.349 0-1.536-.23-3.018-.663-4.416a58.861 58.861 0 0 0 8.525-2.253c1.382-.46 2.027-1.997 1.382-3.225L84.813 25.945a2.533 2.533 0 0 0-3.307-.921Zm-2.944 6.36 8.525 16.93-10.12 2.367c-1.843-3.225-4.874-5.738-8.525-7.12l2.253-4.416a2.533 2.533 0 0 0-.921-3.225 2.533 2.533 0 0 0-3.307.921l-2.253 4.416c-1.843-.23-3.686-.23-5.507 0l-2.253-4.416a2.533 2.533 0 0 0-3.307-.921 2.533 2.533 0 0 0-.921 3.225l2.253 4.416c-3.651 1.382-6.682 3.895-8.525 7.12l-10.12-2.367 8.525-16.93a19.083 19.083 0 0 1 5.738-2.253c3.225-.921 6.682-1.382 10.12-1.382s6.895.46 10.12 1.382a19.083 19.083 0 0 1 5.738 2.253Zm-8.525 23.297 10.12 20.24-10.349 2.367-2.944-5.738c-1.382.23-2.764.46-4.181.46s-2.8-.23-4.181-.46l-2.944 5.738-10.349-2.367 10.12-20.24a14.713 14.713 0 0 1-4.416-10.349c0-6.129 5.507-11.089 12.364-11.089s12.364 4.96 12.364 11.089c0 3.686-1.536 7.12-4.416 10.349Z"/>
</svg>
